<svg version="1.1" id="Layer_1" xmlns="http://www.w3.org/2000/svg" xmlns:xlink="http://www.w3.org/1999/xlink" x="0px" y="0px"
	 width="100%" viewBox="0 0 512 512" enable-background="new 0 0 512 512" xml:space="preserve">
<path fill="#000000" opacity="1.000000" stroke="none" 
	d="
M1.000000,205.000000 
	C1.000000,136.666672 1.000000,68.833336 1.000000,1.000000 
	C171.666672,1.000000 342.333344,1.000000 513.000000,1.000000 
	C513.000000,171.666672 513.000000,342.333344 513.000000,513.000000 
	C342.333344,513.000000 171.666672,513.000000 1.000000,513.000000 
	C1.000000,410.500000 1.000000,308.000000 1.000000,205.000000 
M434.909302,303.536530 
	C452.024628,295.825775 467.236328,285.540436 480.019104,271.594574 
	C493.353180,257.047150 502.293823,240.435654 505.815643,220.985764 
	C506.649109,216.382751 503.916809,212.147552 499.511383,211.133453 
	C495.966614,210.317444 492.362854,209.756073 488.821442,208.927155 
	C481.847229,207.294724 474.898132,205.554993 467.744873,203.812439 
	C468.529266,202.124283 468.776367,201.090759 469.385803,200.358978 
	C475.100372,193.496933 480.783600,186.604828 486.665588,179.887512 
	C491.223297,174.682587 491.286224,171.013474 486.522186,166.009964 
	C477.232056,156.252991 465.588165,150.260971 453.110626,146.020859 
	C436.341675,140.322464 419.181213,137.731522 401.284027,139.848679 
	C384.759521,141.803452 369.115936,146.073318 354.561401,154.049561 
	C347.652039,157.836060 341.061432,162.204239 333.893066,166.572998 
	C334.168579,165.052826 334.379456,163.953812 334.565918,162.850693 
	C336.711853,150.152420 340.022797,137.518524 340.733490,124.740120 
	C341.907135,103.635933 337.571594,83.272072 328.566040,63.944088 
	C319.806915,45.144955 307.354767,29.631281 289.767944,18.463427 
	C280.950439,12.864187 277.703461,13.662159 272.074036,22.405540 
	C271.446686,23.379923 270.882080,24.394482 270.267914,25.377642 
	C265.840546,32.465435 261.407837,39.549934 256.578461,47.272499 
	C254.877167,44.662418 253.682343,42.906986 252.565979,41.103008 
	C248.117889,33.915199 243.784912,26.654249 239.230148,19.534998 
	C236.108765,14.656133 232.519226,13.670585 227.351730,16.361855 
	C217.286163,21.604084 208.704758,28.625177 201.136917,37.199619 
	C183.932281,56.692703 174.575623,79.552345 172.195877,105.074348 
	C170.346985,124.903305 172.855042,144.506363 179.698776,163.390060 
	C180.201050,164.776001 180.429520,166.261139 181.028854,168.685333 
	C178.488815,166.977997 176.948196,166.036713 175.508423,164.960526 
	C153.892563,148.803604 129.512405,140.055038 102.641899,139.219833 
	C92.810341,138.914261 82.759735,140.291794 73.062569,142.193924 
	C55.377304,145.662964 39.525188,153.398819 26.047375,165.581390 
	C22.282976,168.984024 21.798620,174.245819 24.821899,178.179459 
	C26.735607,180.669403 28.886608,182.975525 30.886402,185.401016 
	C35.697586,191.236374 40.482414,197.093445 45.562218,203.288528 
	C43.767872,203.995850 42.610867,204.626114 41.374271,204.911453 
	C32.509521,206.956848 23.623026,208.907791 14.754696,210.937912 
	C8.466081,212.377487 6.393441,215.179321 7.086078,221.574539 
	C7.369116,224.187866 7.947846,226.796082 8.658480,229.331970 
	C15.117122,252.379547 28.655844,270.821198 47.140610,285.396027 
	C66.461685,300.630249 88.558876,310.073425 113.190735,313.086304 
	C117.801659,313.650269 122.379745,314.482697 127.203194,315.226715 
	C119.761475,321.988098 112.743538,327.998871 106.137665,334.432739 
	C83.460526,356.519501 72.319794,383.964874 70.149300,415.106873 
	C68.968712,432.045776 72.424080,448.426941 79.453987,463.960663 
	C81.750587,469.035400 85.918144,470.829651 91.254768,469.007782 
	C93.129776,468.367676 94.904152,467.435333 96.731720,466.653351 
	C104.877289,463.167938 113.025490,459.688751 121.870155,455.909241 
	C121.870155,458.799500 121.980492,460.772858 121.851173,462.730347 
	C121.272606,471.488220 120.454720,480.233978 120.064224,488.999329 
	C119.807846,494.754395 121.974716,496.978668 127.691795,498.011841 
	C143.566132,500.880707 158.778961,497.674744 173.453293,492.128174 
	C192.969971,484.751251 209.669296,473.124634 223.416489,457.206879 
	C233.262848,445.805908 241.491913,433.509247 247.255981,419.586365 
	C249.348450,414.532043 251.414062,409.466614 253.899094,403.414612 
	C255.168274,406.598145 256.077026,408.694885 256.848358,410.841003 
	C263.606598,429.644531 273.762054,446.378448 287.453217,460.932007 
	C297.909637,472.047058 310.161011,480.690430 323.806366,487.517944 
	C339.842316,495.541687 356.722626,499.800201 374.628693,498.852905 
	C387.152161,498.190369 388.783539,495.247986 387.259460,482.730774 
	C386.243896,474.390228 386.343781,465.913849 385.907898,456.728271 
	C388.180939,457.309082 389.773102,457.507812 391.192017,458.112854 
	C399.266937,461.556152 407.262878,465.186371 415.360626,468.573883 
	C421.311981,471.063477 424.989380,469.601898 428.011017,463.851959 
	C433.172516,454.029785 436.015381,443.394043 436.811859,432.497955 
	C438.227112,413.136200 436.474060,394.076599 428.894928,375.828461 
	C420.786407,356.305878 409.151794,339.467255 392.677124,326.082031 
	C388.576569,322.750458 384.580780,319.289917 379.732513,315.212128 
	C399.321686,313.993378 417.194183,310.908997 434.909302,303.536530 
z"/>
<path fill="#474747" opacity="1.000000" stroke="none" 
	d="
M434.559509,303.692932 
	C417.194183,310.908997 399.321686,313.993378 379.732513,315.212128 
	C384.580780,319.289917 388.576569,322.750458 392.677124,326.082031 
	C409.151794,339.467255 420.786407,356.305878 428.894928,375.828461 
	C436.474060,394.076599 438.227112,413.136200 436.811859,432.497955 
	C436.015381,443.394043 433.172516,454.029785 428.011017,463.851959 
	C424.989380,469.601898 421.311981,471.063477 415.360626,468.573883 
	C407.262878,465.186371 399.266937,461.556152 391.192017,458.112854 
	C389.773102,457.507812 388.180939,457.309082 385.907898,456.728271 
	C386.343781,465.913849 386.243896,474.390228 387.259460,482.730774 
	C388.783539,495.247986 387.152161,498.190369 374.628693,498.852905 
	C356.722626,499.800201 339.842316,495.541687 323.806366,487.517944 
	C310.161011,480.690430 297.909637,472.047058 287.453217,460.932007 
	C273.762054,446.378448 263.606598,429.644531 256.848358,410.841003 
	C256.077026,408.694885 255.168274,406.598145 253.899094,403.414612 
	C251.414062,409.466614 249.348450,414.532043 247.255981,419.586365 
	C241.491913,433.509247 233.262848,445.805908 223.416489,457.206879 
	C209.669296,473.124634 192.969971,484.751251 173.453293,492.128174 
	C158.778961,497.674744 143.566132,500.880707 127.691795,498.011841 
	C121.974716,496.978668 119.807846,494.754395 120.064224,488.999329 
	C120.454720,480.233978 121.272606,471.488220 121.851173,462.730347 
	C121.980492,460.772858 121.870155,458.799500 121.870155,455.909241 
	C113.025490,459.688751 104.877289,463.167938 96.731720,466.653351 
	C94.904152,467.435333 93.129776,468.367676 91.254768,469.007782 
	C85.918144,470.829651 81.750587,469.035400 79.453987,463.960663 
	C72.424080,448.426941 68.968712,432.045776 70.149300,415.106873 
	C72.319794,383.964874 83.460526,356.519501 106.137665,334.432739 
	C112.743538,327.998871 119.761475,321.988098 127.203194,315.226715 
	C122.379745,314.482697 117.801659,313.650269 113.190735,313.086304 
	C88.558876,310.073425 66.461685,300.630249 47.140610,285.396027 
	C28.655844,270.821198 15.117122,252.379547 8.658480,229.331970 
	C7.947846,226.796082 7.369116,224.187866 7.086078,221.574539 
	C6.393441,215.179321 8.466081,212.377487 14.754696,210.937912 
	C23.623026,208.907791 32.509521,206.956848 41.374271,204.911453 
	C42.610867,204.626114 43.767872,203.995850 45.562218,203.288528 
	C40.482414,197.093445 35.697586,191.236374 30.886402,185.401016 
	C28.886608,182.975525 26.735607,180.669403 24.821899,178.179459 
	C21.798620,174.245819 22.282976,168.984024 26.047375,165.581390 
	C39.525188,153.398819 55.377304,145.662964 73.062569,142.193924 
	C82.759735,140.291794 92.810341,138.914261 102.641899,139.219833 
	C129.512405,140.055038 153.892563,148.803604 175.508423,164.960526 
	C176.948196,166.036713 178.488815,166.977997 181.028854,168.685333 
	C180.429520,166.261139 180.201050,164.776001 179.698776,163.390060 
	C172.855042,144.506363 170.346985,124.903305 172.195877,105.074348 
	C174.575623,79.552345 183.932281,56.692703 201.136917,37.199619 
	C208.704758,28.625177 217.286163,21.604084 227.351730,16.361855 
	C232.519226,13.670585 236.108765,14.656133 239.230148,19.534998 
	C243.784912,26.654249 248.117889,33.915199 252.565979,41.103008 
	C253.682343,42.906986 254.877167,44.662418 256.578461,47.272499 
	C261.407837,39.549934 265.840546,32.465435 270.267914,25.377642 
	C270.882080,24.394482 271.446686,23.379923 272.074036,22.405540 
	C277.703461,13.662159 280.950439,12.864187 289.767944,18.463427 
	C307.354767,29.631281 319.806915,45.144955 328.566040,63.944088 
	C337.571594,83.272072 341.907135,103.635933 340.733490,124.740120 
	C340.022797,137.518524 336.711853,150.152420 334.565918,162.850693 
	C334.379456,163.953812 334.168579,165.052826 333.893066,166.572998 
	C341.061432,162.204239 347.652039,157.836060 354.561401,154.049561 
	C369.115936,146.073318 384.759521,141.803452 401.284027,139.848679 
	C419.181213,137.731522 436.341675,140.322464 453.110626,146.020859 
	C465.588165,150.260971 477.232056,156.252991 486.522186,166.009964 
	C491.286224,171.013474 491.223297,174.682587 486.665588,179.887512 
	C480.783600,186.604828 475.100372,193.496933 469.385803,200.358978 
	C468.776367,201.090759 468.529266,202.124283 467.744873,203.812439 
	C474.898132,205.554993 481.847229,207.294724 488.821442,208.927155 
	C492.362854,209.756073 495.966614,210.317444 499.511383,211.133453 
	C503.916809,212.147552 506.649109,216.382751 505.815643,220.985764 
	C502.293823,240.435654 493.353180,257.047150 480.019104,271.594574 
	C467.236328,285.540436 452.024628,295.825775 434.559509,303.692932 
M259.746460,324.072357 
	C259.498291,326.373291 258.843536,328.714569 259.067413,330.968628 
	C260.619476,346.595886 261.513977,362.352295 264.219086,377.786865 
	C268.751312,403.646362 279.028687,427.301605 296.698151,447.000275 
	C314.540131,466.891235 336.725067,479.401581 363.565460,482.907715 
	C370.153534,483.768311 371.231171,483.066681 370.943268,476.285370 
	C370.486664,465.531036 369.436951,454.799500 369.089203,444.043732 
	C368.850159,436.651062 373.659515,433.449341 380.594696,436.102814 
	C386.470551,438.351013 392.185944,441.018036 397.977051,443.488678 
	C403.833130,445.987030 409.695038,448.471802 415.713776,451.030243 
	C416.344543,449.685699 416.731049,448.979248 417.017090,448.234222 
	C421.032623,437.774872 421.187195,426.862244 421.041656,415.859283 
	C420.828461,399.740356 416.176208,384.812225 408.789307,370.758789 
	C399.403198,352.901886 385.650116,338.671661 368.687622,328.094543 
	C354.250275,319.091949 339.185272,310.922699 323.780670,303.701569 
	C312.298828,298.319244 299.789642,295.152985 287.826752,290.758209 
	C283.912109,289.320099 281.925568,290.896484 280.147186,294.094910 
	C292.815002,313.974304 305.432861,333.770355 318.044556,353.570282 
	C320.992035,358.197723 320.320770,362.587921 316.279297,365.275330 
	C311.945801,368.157043 307.798920,367.172974 304.567932,362.178040 
	C292.515869,343.546173 280.595215,324.829041 268.460205,306.251678 
	C267.432617,304.678558 265.180786,303.905121 263.497711,302.760162 
	C262.342804,304.724426 260.422882,306.601562 260.187225,308.670563 
	C259.643433,313.443909 259.917084,318.310394 259.746460,324.072357 
M191.028641,359.322510 
	C191.548706,357.467834 191.712967,355.404266 192.655960,353.797821 
	C195.420792,349.087891 198.458908,344.535858 201.455505,339.964935 
	C210.991852,325.418457 220.611099,310.925751 230.021454,296.298462 
	C230.862915,294.990479 230.998611,292.640717 230.437683,291.163849 
	C229.700195,289.222107 228.219681,288.068909 225.362473,288.923004 
	C193.585617,298.422272 162.990280,310.445923 135.914856,330.105103 
	C120.433128,341.346130 107.360359,354.717560 98.424866,371.933929 
	C91.521118,385.235657 87.348442,399.300415 86.185310,414.110535 
	C85.207474,426.561127 86.951317,438.831543 91.751495,451.106506 
	C103.050034,446.309601 114.081841,441.840973 124.906967,436.917908 
	C128.902939,435.100525 132.527466,434.191345 135.999084,437.214386 
	C139.368378,440.148376 139.171280,444.237610 138.841995,448.313629 
	C137.927567,459.633057 137.124680,470.961548 136.204971,483.259155 
	C140.605118,482.811737 144.342361,482.567810 148.037796,482.034302 
	C176.335205,477.948730 198.146439,462.892059 215.797180,441.249268 
	C227.366272,427.063721 234.793610,410.585388 239.790833,393.097565 
	C242.329422,384.213776 244.902206,375.096252 245.474121,365.960083 
	C246.089447,356.130310 244.275528,346.160736 243.733932,336.240540 
	C243.502090,331.993958 243.837524,327.718201 243.861191,323.455414 
	C243.891891,317.927063 243.868683,312.398438 243.868683,305.516022 
	C242.617630,307.246155 242.236557,307.734070 241.896500,308.249054 
	C230.116776,326.088104 218.479019,344.024231 206.406387,361.662750 
	C204.715652,364.132965 201.004837,366.248474 198.030930,366.545807 
	C194.510178,366.897736 191.550049,364.289642 191.028641,359.322510 
M226.432983,219.079727 
	C230.469971,224.733109 234.546555,230.358826 238.525208,236.052963 
	C240.205353,238.457565 241.633560,240.298676 245.247330,238.959229 
	C248.671417,237.690094 249.043411,235.556458 249.035294,232.503754 
	C248.965790,206.342621 248.995987,180.181229 249.000870,154.019913 
	C249.001190,152.353943 248.849075,150.659225 249.096085,149.027557 
	C249.756760,144.663330 252.370728,142.233871 256.819427,142.054977 
	C261.159546,141.880478 264.459320,144.787064 264.924896,149.161591 
	C265.100403,150.810837 264.999207,152.491058 264.999603,154.157166 
	C265.005859,180.651733 265.099304,207.146957 264.914703,233.640213 
	C264.886383,237.701843 267.237335,238.419708 270.072693,239.671982 
	C273.053955,240.988708 274.375702,239.303101 275.836884,237.435196 
	C290.495697,218.696213 303.560791,198.977921 312.571930,176.828384 
	C319.801636,159.057617 324.594543,140.681122 324.952759,121.395706 
	C325.235840,106.156670 322.548615,91.297081 316.829468,77.205818 
	C309.924133,60.192032 300.024414,45.222908 284.330902,34.413784 
	C283.529633,35.309410 282.633087,36.058861 282.050293,37.002155 
	C276.473602,46.028671 270.511780,54.855320 265.545532,64.209221 
	C261.343414,72.123840 252.669983,74.171928 247.504913,64.316704 
	C242.079163,53.964031 235.480011,44.226318 229.208466,33.915455 
	C216.229782,42.511852 207.021286,53.857986 200.060272,67.010025 
	C184.714737,96.003654 184.483826,126.127594 194.425156,156.712662 
	C201.654465,178.954071 212.830124,199.255554 226.432983,219.079727 
M47.017151,179.524109 
	C53.455452,187.298935 59.896511,195.071472 66.331093,202.849365 
	C70.721497,208.156326 68.583107,215.228821 61.922073,216.816162 
	C51.468594,219.307281 40.971901,221.622971 30.467117,223.890732 
	C24.186949,225.246460 23.858576,225.400803 26.174965,231.220123 
	C37.759151,260.322235 59.773251,278.547089 88.068596,290.095215 
	C108.158752,298.294586 129.246368,299.764893 150.607864,298.890778 
	C153.652832,298.766144 156.752487,297.685303 159.648285,296.579498 
	C178.819809,289.258698 197.940582,281.805145 217.084702,274.412506 
	C218.740326,273.773163 220.445526,273.262115 222.127686,272.691467 
	C215.230835,268.964752 208.450943,266.454346 201.636948,264.040161 
	C183.698547,257.684631 165.760056,251.328568 147.786453,245.073761 
	C143.861206,243.707779 142.246582,240.644730 142.239151,237.095078 
	C142.231216,233.300110 144.631195,230.483643 148.535049,229.848297 
	C150.513702,229.526276 152.787704,229.767227 154.692017,230.431076 
	C177.048874,238.224731 199.339584,246.208969 221.728378,253.908417 
	C223.375320,254.474792 226.217667,253.810471 227.419708,252.621689 
	C228.197998,251.851990 227.564636,248.702606 226.595932,247.277466 
	C221.383118,239.608444 215.809464,232.186020 210.474396,224.598312 
	C206.389114,218.788071 203.232941,212.106735 198.319809,207.142838 
	C188.778778,197.503174 178.821899,188.112518 168.093857,179.842590 
	C142.136169,159.832581 112.930588,150.873383 80.077263,157.080292 
	C66.459808,159.653000 53.730701,164.554428 42.265026,173.419403 
	C43.773853,175.404007 45.148884,177.212616 47.017151,179.524109 
M414.899780,293.522919 
	C439.121368,286.249939 459.185181,272.812347 474.635284,252.758545 
	C480.812195,244.741074 485.493256,235.868103 488.083740,225.454712 
	C483.497803,224.241196 479.391846,223.028702 475.225922,222.079391 
	C467.322083,220.278336 459.352905,218.757980 451.468872,216.877625 
	C444.008453,215.098282 441.915649,209.712021 446.079407,203.457947 
	C447.177032,201.809250 448.482178,200.293518 449.747040,198.762177 
	C456.681183,190.367325 463.632477,181.986633 470.934174,173.170898 
	C448.060028,157.807190 423.555542,152.345612 396.844604,156.531631 
	C377.050018,159.633759 359.400452,167.843292 343.888336,180.219284 
	C334.459717,187.741669 324.846008,195.576981 317.426025,204.943634 
	C306.473969,218.768967 297.370117,234.062363 287.576477,248.795258 
	C286.605133,250.256470 286.308289,252.166046 285.698395,253.867523 
	C287.543182,253.930252 289.579285,254.540253 291.203583,253.972321 
	C310.601532,247.190094 329.934265,240.221359 349.295074,233.332474 
	C352.570099,232.167175 355.895630,231.143341 359.200745,230.063049 
	C364.255951,228.410706 368.337616,230.184204 370.033508,234.761429 
	C371.783661,239.485077 369.887115,243.309128 364.663574,245.169113 
	C341.407349,253.450058 318.123169,261.652832 294.883240,269.979095 
	C293.035919,270.640961 291.449005,272.029480 288.760162,273.683838 
	C291.142303,274.657501 291.886932,274.983887 292.646973,275.269226 
	C307.369598,280.796936 322.322174,285.792084 336.739319,292.025818 
	C346.651276,296.311646 356.504181,298.949249 367.325897,299.114838 
	C383.203369,299.357788 398.787415,297.830658 414.899780,293.522919 
M272.863678,275.068726 
	C275.117004,270.135132 273.586365,265.654907 271.123627,261.343048 
	C266.648438,253.507660 256.930939,250.698090 248.635284,254.774551 
	C240.902832,258.574219 237.206573,268.402863 240.738098,276.312378 
	C243.393112,282.258759 247.594009,286.459625 254.523895,286.984650 
	C263.254517,287.646118 269.112183,283.642395 272.863678,275.068726 
z"/>
<path fill="#000000" opacity="1.000000" stroke="none" 
	d="
M259.802795,323.605713 
	C259.917084,318.310394 259.643433,313.443909 260.187225,308.670563 
	C260.422882,306.601562 262.342804,304.724426 263.497711,302.760162 
	C265.180786,303.905121 267.432617,304.678558 268.460205,306.251678 
	C280.595215,324.829041 292.515869,343.546173 304.567932,362.178040 
	C307.798920,367.172974 311.945801,368.157043 316.279297,365.275330 
	C320.320770,362.587921 320.992035,358.197723 318.044556,353.570282 
	C305.432861,333.770355 292.815002,313.974304 280.147186,294.094910 
	C281.925568,290.896484 283.912109,289.320099 287.826752,290.758209 
	C299.789642,295.152985 312.298828,298.319244 323.780670,303.701569 
	C339.185272,310.922699 354.250275,319.091949 368.687622,328.094543 
	C385.650116,338.671661 399.403198,352.901886 408.789307,370.758789 
	C416.176208,384.812225 420.828461,399.740356 421.041656,415.859283 
	C421.187195,426.862244 421.032623,437.774872 417.017090,448.234222 
	C416.731049,448.979248 416.344543,449.685699 415.713776,451.030243 
	C409.695038,448.471802 403.833130,445.987030 397.977051,443.488678 
	C392.185944,441.018036 386.470551,438.351013 380.594696,436.102814 
	C373.659515,433.449341 368.850159,436.651062 369.089203,444.043732 
	C369.436951,454.799500 370.486664,465.531036 370.943268,476.285370 
	C371.231171,483.066681 370.153534,483.768311 363.565460,482.907715 
	C336.725067,479.401581 314.540131,466.891235 296.698151,447.000275 
	C279.028687,427.301605 268.751312,403.646362 264.219086,377.786865 
	C261.513977,362.352295 260.619476,346.595886 259.067413,330.968628 
	C258.843536,328.714569 259.498291,326.373291 259.802795,323.605713 
z"/>
<path fill="#000000" opacity="1.000000" stroke="none" 
	d="
M191.045837,359.725952 
	C191.550049,364.289642 194.510178,366.897736 198.030930,366.545807 
	C201.004837,366.248474 204.715652,364.132965 206.406387,361.662750 
	C218.479019,344.024231 230.116776,326.088104 241.896500,308.249054 
	C242.236557,307.734070 242.617630,307.246155 243.868683,305.516022 
	C243.868683,312.398438 243.891891,317.927063 243.861191,323.455414 
	C243.837524,327.718201 243.502090,331.993958 243.733932,336.240540 
	C244.275528,346.160736 246.089447,356.130310 245.474121,365.960083 
	C244.902206,375.096252 242.329422,384.213776 239.790833,393.097565 
	C234.793610,410.585388 227.366272,427.063721 215.797180,441.249268 
	C198.146439,462.892059 176.335205,477.948730 148.037796,482.034302 
	C144.342361,482.567810 140.605118,482.811737 136.204971,483.259155 
	C137.124680,470.961548 137.927567,459.633057 138.841995,448.313629 
	C139.171280,444.237610 139.368378,440.148376 135.999084,437.214386 
	C132.527466,434.191345 128.902939,435.100525 124.906967,436.917908 
	C114.081841,441.840973 103.050034,446.309601 91.751495,451.106506 
	C86.951317,438.831543 85.207474,426.561127 86.185310,414.110535 
	C87.348442,399.300415 91.521118,385.235657 98.424866,371.933929 
	C107.360359,354.717560 120.433128,341.346130 135.914856,330.105103 
	C162.990280,310.445923 193.585617,298.422272 225.362473,288.923004 
	C228.219681,288.068909 229.700195,289.222107 230.437683,291.163849 
	C230.998611,292.640717 230.862915,294.990479 230.021454,296.298462 
	C220.611099,310.925751 210.991852,325.418457 201.455505,339.964935 
	C198.458908,344.535858 195.420792,349.087891 192.655960,353.797821 
	C191.712967,355.404266 191.548706,357.467834 191.045837,359.725952 
z"/>
<path fill="#000000" opacity="1.000000" stroke="none" 
	d="
M226.210632,218.793564 
	C212.830124,199.255554 201.654465,178.954071 194.425156,156.712662 
	C184.483826,126.127594 184.714737,96.003654 200.060272,67.010025 
	C207.021286,53.857986 216.229782,42.511852 229.208466,33.915455 
	C235.480011,44.226318 242.079163,53.964031 247.504913,64.316704 
	C252.669983,74.171928 261.343414,72.123840 265.545532,64.209221 
	C270.511780,54.855320 276.473602,46.028671 282.050293,37.002155 
	C282.633087,36.058861 283.529633,35.309410 284.330902,34.413784 
	C300.024414,45.222908 309.924133,60.192032 316.829468,77.205818 
	C322.548615,91.297081 325.235840,106.156670 324.952759,121.395706 
	C324.594543,140.681122 319.801636,159.057617 312.571930,176.828384 
	C303.560791,198.977921 290.495697,218.696213 275.836884,237.435196 
	C274.375702,239.303101 273.053955,240.988708 270.072693,239.671982 
	C267.237335,238.419708 264.886383,237.701843 264.914703,233.640213 
	C265.099304,207.146957 265.005859,180.651733 264.999603,154.157166 
	C264.999207,152.491058 265.100403,150.810837 264.924896,149.161591 
	C264.459320,144.787064 261.159546,141.880478 256.819427,142.054977 
	C252.370728,142.233871 249.756760,144.663330 249.096085,149.027557 
	C248.849075,150.659225 249.001190,152.353943 249.000870,154.019913 
	C248.995987,180.181229 248.965790,206.342621 249.035294,232.503754 
	C249.043411,235.556458 248.671417,237.690094 245.247330,238.959229 
	C241.633560,240.298676 240.205353,238.457565 238.525208,236.052963 
	C234.546555,230.358826 230.469971,224.733109 226.210632,218.793564 
z"/>
<path fill="#000000" opacity="1.000000" stroke="none" 
	d="
M46.770531,179.272675 
	C45.148884,177.212616 43.773853,175.404007 42.265026,173.419403 
	C53.730701,164.554428 66.459808,159.653000 80.077263,157.080292 
	C112.930588,150.873383 142.136169,159.832581 168.093857,179.842590 
	C178.821899,188.112518 188.778778,197.503174 198.319809,207.142838 
	C203.232941,212.106735 206.389114,218.788071 210.474396,224.598312 
	C215.809464,232.186020 221.383118,239.608444 226.595932,247.277466 
	C227.564636,248.702606 228.197998,251.851990 227.419708,252.621689 
	C226.217667,253.810471 223.375320,254.474792 221.728378,253.908417 
	C199.339584,246.208969 177.048874,238.224731 154.692017,230.431076 
	C152.787704,229.767227 150.513702,229.526276 148.535049,229.848297 
	C144.631195,230.483643 142.231216,233.300110 142.239151,237.095078 
	C142.246582,240.644730 143.861206,243.707779 147.786453,245.073761 
	C165.760056,251.328568 183.698547,257.684631 201.636948,264.040161 
	C208.450943,266.454346 215.230835,268.964752 222.127686,272.691467 
	C220.445526,273.262115 218.740326,273.773163 217.084702,274.412506 
	C197.940582,281.805145 178.819809,289.258698 159.648285,296.579498 
	C156.752487,297.685303 153.652832,298.766144 150.607864,298.890778 
	C129.246368,299.764893 108.158752,298.294586 88.068596,290.095215 
	C59.773251,278.547089 37.759151,260.322235 26.174965,231.220123 
	C23.858576,225.400803 24.186949,225.246460 30.467117,223.890732 
	C40.971901,221.622971 51.468594,219.307281 61.922073,216.816162 
	C68.583107,215.228821 70.721497,208.156326 66.331093,202.849365 
	C59.896511,195.071472 53.455452,187.298935 46.770531,179.272675 
z"/>
<path fill="#000000" opacity="1.000000" stroke="none" 
	d="
M414.518738,293.670227 
	C398.787415,297.830658 383.203369,299.357788 367.325897,299.114838 
	C356.504181,298.949249 346.651276,296.311646 336.739319,292.025818 
	C322.322174,285.792084 307.369598,280.796936 292.646973,275.269226 
	C291.886932,274.983887 291.142303,274.657501 288.760162,273.683838 
	C291.449005,272.029480 293.035919,270.640961 294.883240,269.979095 
	C318.123169,261.652832 341.407349,253.450058 364.663574,245.169113 
	C369.887115,243.309128 371.783661,239.485077 370.033508,234.761429 
	C368.337616,230.184204 364.255951,228.410706 359.200745,230.063049 
	C355.895630,231.143341 352.570099,232.167175 349.295074,233.332474 
	C329.934265,240.221359 310.601532,247.190094 291.203583,253.972321 
	C289.579285,254.540253 287.543182,253.930252 285.698395,253.867523 
	C286.308289,252.166046 286.605133,250.256470 287.576477,248.795258 
	C297.370117,234.062363 306.473969,218.768967 317.426025,204.943634 
	C324.846008,195.576981 334.459717,187.741669 343.888336,180.219284 
	C359.400452,167.843292 377.050018,159.633759 396.844604,156.531631 
	C423.555542,152.345612 448.060028,157.807190 470.934174,173.170898 
	C463.632477,181.986633 456.681183,190.367325 449.747040,198.762177 
	C448.482178,200.293518 447.177032,201.809250 446.079407,203.457947 
	C441.915649,209.712021 444.008453,215.098282 451.468872,216.877625 
	C459.352905,218.757980 467.322083,220.278336 475.225922,222.079391 
	C479.391846,223.028702 483.497803,224.241196 488.083740,225.454712 
	C485.493256,235.868103 480.812195,244.741074 474.635284,252.758545 
	C459.185181,272.812347 439.121368,286.249939 414.518738,293.670227 
z"/>
<path fill="#000000" opacity="1.000000" stroke="none" 
	d="
M272.721161,275.431885 
	C269.112183,283.642395 263.254517,287.646118 254.523895,286.984650 
	C247.594009,286.459625 243.393112,282.258759 240.738098,276.312378 
	C237.206573,268.402863 240.902832,258.574219 248.635284,254.774551 
	C256.930939,250.698090 266.648438,253.507660 271.123627,261.343048 
	C273.586365,265.654907 275.117004,270.135132 272.721161,275.431885 
z"/>
</svg>